<svg xmlns="http://www.w3.org/2000/svg" viewBox="0 0 50.12 43.11"><defs><style>.cls-1{fill:#f056c8;}.cls-2{fill:#00becc;}.cls-3{fill:none;stroke:#00becc;stroke-miterlimit:10;stroke-width:4px;}.cls-4{fill:#fff;}</style></defs><title>Asset 2</title><g id="Layer_2" data-name="Layer 2"><g id="Layer_1-2" data-name="Layer 1"><polygon class="cls-1" points="35.42 41.73 47.79 21.7 50.13 21.78 37.1 42.77 35.42 41.73"/><polygon class="cls-2" points="36.72 0.93 38.46 0 50.13 21.78 47.79 21.7 36.72 0.93"/><polygon class="cls-1" points="14.71 1.38 2.34 21.4 0 21.33 13.03 0.34 14.71 1.38"/><polygon class="cls-2" points="13.41 42.17 11.67 43.1 0 21.33 2.34 21.4 13.41 42.17"/><path class="cls-3" d="M20.62,0" transform="translate(0 -0.68)"/><path class="cls-4" d="M12.84,26.26a3.82,3.82,0,0,1-1.46-1.18l1.17-1.41a2.67,2.67,0,0,0,2.2,1.26q1.72,0,1.72-2V17.17H12.53V15.45h6v7.34a4,4,0,0,1-.95,2.92,3.72,3.72,0,0,1-2.78,1A4.54,4.54,0,0,1,12.84,26.26Z" transform="translate(0 -0.68)"/><path class="cls-4" d="M20.8,26.26a1.32,1.32,0,1,1,.92.37A1.26,1.26,0,0,1,20.8,26.26Z" transform="translate(0 -0.68)"/><path class="cls-4" d="M35.3,26.52l0-7.34-3.64,6.07h-.92l-3.64-6v7.24h-2V15.45h1.69l4.4,7.34,4.32-7.34h1.69l0,11.07Z" transform="translate(0 -0.68)"/></g></g></svg>